{"title":"The Way Back TS XViD - IMAGiNE","uid":6152719,"size":1601108838,"categoryP":"video","categoryS":"movies","magnet":"?xt=urn:btih:bfa312952a6352b4d3f3c7e46ac50f0418ece9f0&amp;dn=The+Way+Back+TS+XViD+-+IMAGiNE&amp;tr=udp%3A%2F%2Ftracker.openbittorrent.com%3A80&amp;tr=udp%3A%2F%2Fopen.demonii.com%3A1337&amp;tr=udp%3A%2F%2Ftracker.coppersurfer.tk%3A6969&amp;tr=udp%3A%2F%2Fexodus.desync.com%3A6969","seeders":1,"leechers":0,"uploader":"hiest","files":-1,"time":1296927768,"description":"Ripper ...........:IMAGiNE IMDB Rating.......:7.6/10 \nVideo Codec.......:XVID Release Date......:05/02/11\nAudio Codec.......:MP3 Theatre Date......:21/01/11\nAudio Bitrate.....:128 Runtime...........:2h 5mn\nSubtitles.........:NIL Language..........:ENGLISH\nResolution........:720 x 304 IMDb URL..........:http://www.imdb.com/title/tt1023114/\nDETAILS:\n\nVideo\nID : 0\nFormat : MPEG-4 Visual\nFormat profile : Advanced Simple@L5\nFormat settings, BVOP : Yes\nFormat settings, QPel : Yes\nFormat settings, GMC : No warppoints\nFormat settings, Matrix : Default (H.263)\nCodec ID : XVID\nCodec ID/Hint : XviD\nDuration : 2h 5mn\nBit rate : 1 559 Kbps\nWidth : 720 pixels\nHeight : 304 pixels\nDisplay aspect ratio : 2.35:1\nFrame rate : 25.000 fps\nColor space : YUV\nChroma subsampling : 4:2:0\nBit depth : 8 bits\nScan type : Progressive\nBits/(Pixel*Frame) : 0.285\nStream size : 1.36 GiB (92%)\nWriting library : XviD 1.2.1 (UTC 2008-12-04)\n\nAudio\nID : 1\nFormat : MPEG Audio\nFormat version : Version 1\nFormat profile : Layer 3\nCodec ID : 55\nCodec ID/Hint : MP3\nDuration : 2h 5mn\nBit rate mode : Constant\nBit rate : 128 Kbps\nChannel(s) : 2 channels\nSampling rate : 44.1 KHz\nStream size : 115 MiB (8%)\nAlignment : Split accross interleaves\nInterleave, duration : 40 ms (1.00 video frame)\nInterleave, preload duration : 500 ms\n\n\n\n\n\n\n\nSOURCES:\n\nVIDEO: ... SERENiTY Original files... Thanks Mates\nAUDIO: ... OWN\n\nNOTES:\n\nIMAGiNE bringing you another release..........The Way Back 2010\n\nHere we are with a nice TS of this one for you. First off thanks to our friends at SERENiTY for\nthe source files... Work done was we made a small script to rotate, crop, resize, and a slight\nsharpening script, then it was onto the contrast, gamma, and rgb colors. Now with the audio it was\njust a matter of syncing our line audio to it and here you go.\n\nEnjoy\n\n\n\n\n================================== &lt;a href=&quot;\nhttp://thepiratebay.se/user/hiest&quot; rel=&quot;nofollow&quot; target=&quot;_NEW&quot;&gt;\nhttp://thepiratebay.se/user/hiest&lt;/a&gt;\n==================================\n\n\n\n\nScreenshots:\n\n\n\n\n","torrent":{"xt":"urn:btih:bfa312952a6352b4d3f3c7e46ac50f0418ece9f0","amp;dn":"The+Way+Back+TS+XViD+-+IMAGiNE","amp;tr":["udp%3A%2F%2Ftracker.openbittorrent.com%3A80","udp%3A%2F%2Fopen.demonii.com%3A1337","udp%3A%2F%2Ftracker.coppersurfer.tk%3A6969","udp%3A%2F%2Fexodus.desync.com%3A6969"],"infoHash":"bfa312952a6352b4d3f3c7e46ac50f0418ece9f0","infoHashBuffer":{"type":"Buffer","data":[191,163,18,149,42,99,82,180,211,243,199,228,106,197,15,4,24,236,233,240]},"announce":[],"urlList":[]}}